<svg xmlns="http://www.w3.org/2000/svg" width="400" height="56.36" viewBox="0 0 400 56.36"><title>Banco da Amazônia</title><path fill="#FC0" d="M65.388,34.462c-5.161-0.432-9.764-2.21-13.211-3.935-2.608-1.324-4.553-2.59-5.543-3.218l-8.548,13.002c0.31,0.302,0.469,0.502,0.469,0.502,2.876,1.854,5.593,3.285,8.166,4.33,7.379,3.031,13.58,2.979,18.668,1.383,12.688-3.991,18.491-17.663,18.491-17.663-6.286,4.865-12.733,6.07-18.492,5.599zm-65.388,5.676c7.986-6.837,15.27-8.57,21.318-8.05l7.697-11.608c-22.489-3.375-29.015,19.658-29.015,19.658z"/><path fill="#278428" d="M46.72,45.144l-4.104,10.993h22.772v-9.61c-5.089,1.596-11.289,1.648-18.668-1.383zm-4.104-45.144l-13.6,20.48-7.697,11.608-16.122,24.272h22.316l10.572-16.048,8.548-13.002,15.596-23.689-10.052,26.907c3.447,1.725,8.05,3.503,13.211,3.935v-34.463h-22.772z"/><g fill="#45403E"><path d="M94.865,52.452c-0.881,0-1.401,0.027-1.995-0.013v-6.201l0.029-2.921-0.029-5.739c0.485,0,1.114-0.049,2.262-0.049,2.349,0,3.614,0.752,3.614,2.428,0,1.631-1.243,2.965-3.592,2.942v3.072c2.183,0.026,4.134,1.155,4.134,3.364,0,2.322-2.075,3.117-4.423,3.117zm5.315-8.339v-0.066c2.542-0.947,3.729-2.748,3.729-4.682,0-2.026-1.114-3.529-2.717-4.343-1.663-0.946-3.303-0.92-6.685-0.92-2.624,0-5.376,0.089-6.758,0.16v21.621h5.609c4.56,0,7.328-0.396,8.99-1.671,1.431-1.08,2.377-2.649,2.377-4.672-0.01-2.849-1.94-4.788-4.55-5.427z"/><path d="M128.35,55.977v-22.04h5.571l4.365,8.077c1.265,2.316,2.479,5.077,3.447,7.562h0.071c-0.057-2.92-0.173-5.832-0.173-9.192l-0.209-6.446h4.372v22.04h-5.001l-4.502-8.499c-1.249-2.392-2.653-5.21-3.65-7.788h-0.13c0.152,2.947,0.225,6.045,0.225,9.646v6.642h-4.393l0.003-0.002z"/><path d="M350.67,55.977v-22.04h5.563l4.372,8.077c1.249,2.316,2.465,5.077,3.432,7.562h0.067c-0.059-2.92-0.174-5.832-0.174-9.192l-0.204-6.446h4.365v22.04h-4.985l-4.51-8.499c-1.243-2.392-2.646-5.21-3.656-7.788h-0.122c0.164,2.947,0.23,6.045,0.23,9.646v6.642h-4.391l0.001-0.002z"/><path d="M165.36,55.399c-0.846,0.414-2.847,0.934-5.383,0.934-7.278,0-11.029-4.77-11.029-11.077,0-7.526,5.131-11.683,11.504-11.683,2.472,0,4.343,0.529,5.189,0.987l-0.036,3.77c-0.933-0.427-3.238-0.658-4.972-0.658-3.744,0-6.685,2.378-6.685,7.321,0,4.414,2.507,7.192,6.72,7.192,1.467,0,3.678-0.298,4.654-0.725l0.05,3.939z"/><path d="M201.02,52.212c0.412,0.102,1.1,0.102,1.655,0.102,4.352,0.036,7.19-2.449,7.19-7.717,0-4.743-2.559-6.997-6.684-6.997-1.034,0-1.75,0.103-2.162,0.205v14.407h-0.01zm-4.74-17.95c1.799-0.16,4.156-0.254,6.534-0.254,4.031,0,6.519,0.454,8.513,2.054,2.196,1.707,3.569,4.441,3.569,8.384,0,4.205-1.467,7.117-3.461,8.918-2.218,1.92-5.658,2.556-9.813,2.636-2.234,0.049-4.142-0.116-5.342-0.116v-21.622z"/><polygon points="224.53,37.992,221.55,50.318,220.08,55.977,215.14,55.977,221.58,33.937,227.8,33.937,234.37,55.977,229.24,55.977,227.61,50.318,224.53,37.992"/><polygon points="116.65,37.992,113.65,50.318,112.19,55.977,107.27,55.977,113.68,33.937,119.91,33.937,126.48,55.977,121.36,55.977,119.73,50.318,116.65,37.992"/><polygon points="253.12,37.992,250.12,50.318,248.65,55.977,243.72,55.977,250.16,33.937,256.38,33.937,262.93,55.977,257.81,55.977,256.18,50.318,253.12,37.992"/><polygon points="300.46,37.992,297.47,50.318,296.01,55.977,291.06,55.977,297.51,33.937,303.72,33.937,310.28,55.977,305.15,55.977,303.54,50.318,300.46,37.992"/><polygon points="390.17,37.992,387.18,50.318,385.7,55.977,380.77,55.977,387.21,33.937,393.44,33.937,400,55.977,394.87,55.977,393.25,50.318,390.17,37.992"/><polygon points="310.98,53.288,321,38.152,321,38.063,311.89,38.063,311.89,33.937,327.17,33.937,327.17,36.814,317.35,51.723,317.35,51.852,327.32,51.852,327.32,55.977,310.98,55.977,310.98,53.288"/><path d="M339.71,28.646l2.991,4.118h-3.085l-1.453-2.161h-0.07l-1.46,2.161h-3.057l2.972-4.118h3.161-0.001zm-1.58,23.73c3.008,0,4.719-3.17,4.719-7.486,0-3.951-1.653-7.348-4.719-7.348-3.063,0-4.783,3.325-4.783,7.45,0,4.156,1.778,7.384,4.755,7.384h0.028,0.002zm-0.2,3.957c-5.81,0-9.25-4.938-9.25-11.211,0-6.602,3.794-11.549,9.568-11.549,6.034,0,9.346,5.081,9.346,11.162,0,7.255-3.89,11.598-9.635,11.598h-0.034,0.004z"/><path d="M176.82,52.376h-0.037c-2.985,0-4.755-3.228-4.755-7.384,0-4.125,1.721-7.45,4.792-7.45,3.056,0,4.711,3.396,4.711,7.348,0.01,4.317-1.71,7.486-4.7,7.486zm0.11-18.803c-5.782,0-9.575,4.947-9.575,11.549,0,6.272,3.447,11.211,9.25,11.211h0.036c5.731,0,9.627-4.343,9.627-11.598-0.01-6.081-3.32-11.162-9.35-11.162z"/><polygon points="377.72,55.977,372.98,55.977,372.98,33.937,377.72,33.937,377.72,55.977"/><polygon points="265.67,56.048,265.67,34.066,272.86,34.066,276.75,47.473,280.76,34.008,287.95,34.008,287.95,56,283.42,56,283.42,39.183,277.98,55.759,275.01,55.759,270.16,39.387,270.18,56,265.67,56.048"/></g></svg>