<?xml version="1.0" encoding="UTF-8" standalone="no"?>
<svg xmlns="http://www.w3.org/2000/svg"
   xmlns:dc="http://purl.org/dc/elements/1.1/"
   xmlns:cc="http://creativecommons.org/ns#"
   xmlns:rdf="http://www.w3.org/1999/02/22-rdf-syntax-ns#"
   width="210" height="55.180466">
  <title>Cia. do Metropolitano de S. Paulo (Metrô)</title>
  <metadata>
    <rdf:RDF>
      <cc:Work rdf:about="">
        <dc:format>image/svg+xml</dc:format>
        <dc:type rdf:resource="http://purl.org/dc/dcmitype/StillImage"/>
        <dc:title>Cia. do Metropolitano de S. Paulo (Metrô)</dc:title>
        <cc:license rdf:resource="http://creativecommons.org/licenses/by-sa/3.0/"/>
      </cc:Work>
      <cc:License rdf:about="http://creativecommons.org/licenses/by-sa/3.0/">
        <cc:permits
           rdf:resource="http://creativecommons.org/ns#Reproduction" />
        <cc:permits
           rdf:resource="http://creativecommons.org/ns#Distribution" />
        <cc:requires
           rdf:resource="http://creativecommons.org/ns#Notice" />
        <cc:requires
           rdf:resource="http://creativecommons.org/ns#Attribution" />
        <cc:permits
           rdf:resource="http://creativecommons.org/ns#DerivativeWorks" />
        <cc:requires
           rdf:resource="http://creativecommons.org/ns#ShareAlike" />
      </cc:License>
    </rdf:RDF>
  </metadata>
  <g transform="translate(-50.928612,-36.595223)">
    <g transform="matrix(3.0800198,0,0,3.0800198,-847.27785,-202.69178)">
      <path
         style="fill:#1c5ca2;fill-opacity:1;fill-rule:evenodd;stroke:none"
         d="m 311.06185,77.690086 48.74313,0 0,17.91562 -48.74313,0 0,-17.91562 z" />
      <path
         style="fill:#ffffff;fill-opacity:1;fill-rule:evenodd;stroke:none"
         d="m 351.70535,79.381336 2.0675,1.04837 0,1.20088 -2.05112,-0.96163 -2.02651,0.96163 0,-1.20088 2.01013,-1.04837 z m -2.22875,7.049 c 0,0.90812 0.18188,1.67137 0.54462,2.24925 0.34688,0.5985 0.92488,0.90787 1.721,0.90787 0.52438,0 0.94075,-0.14425 1.28763,-0.43725 0.34687,-0.26825 0.58225,-0.65237 0.72637,-1.069 0.14425,-0.41675 0.23563,-0.85012 0.23563,-1.271 0,-0.75937 -0.16513,-1.46937 -0.45425,-2.10512 -0.28913,-0.63138 -0.90813,-0.95738 -1.84925,-0.97788 -0.32175,0 -0.66863,0.0906 -0.99463,0.27238 -0.30887,0.16512 -0.598,0.454 -0.83337,0.85437 -0.21863,0.41663 -0.34688,0.94075 -0.38375,1.57638 z m -1.70425,0.652 0,-0.28875 c 0,-0.88725 0.14412,-1.6675 0.41662,-2.34 0.27213,-0.67288 0.72638,-1.197 1.30788,-1.5765 0.59887,-0.36313 1.379,-0.5655 2.28262,-0.58213 0.50738,0 0.99463,0.0701 1.469,0.23525 0.45388,0.16513 0.88725,0.43338 1.25075,0.78025 0.36288,0.36325 0.65163,0.81713 0.87063,1.39463 0.21862,0.5655 0.326,1.23412 0.326,1.99775 0,0.6725 -0.0908,1.28762 -0.28837,1.81587 -0.18176,0.54463 -0.45426,0.99463 -0.80088,1.35788 -0.35925,0.38375 -0.77987,0.6725 -1.267,0.87062 -0.4915,0.165 -1.03612,0.25613 -1.61787,0.25613 -0.79238,0 -1.48188,-0.16513 -2.06325,-0.4915 -0.59888,-0.34225 -1.05238,-0.83338 -1.35825,-1.43175 -0.32601,-0.58225 -0.50775,-1.2505 -0.52788,-1.99775 z m -5.98438,-0.94075 2.12138,0 c 0.433,0 0.76325,-0.0907 0.94075,-0.28913 0.16512,-0.21862 0.2555,-0.50737 0.2555,-0.87062 0,-0.30963 -0.0904,-0.56125 -0.2555,-0.76363 -0.1775,-0.21862 -0.48675,-0.326 -0.90425,-0.326 l -2.15788,0 0,2.24938 z m -1.72512,4.58925 0,-8.27075 4.18887,0 c 0.56513,0 1.03563,0.10737 1.41513,0.326 0.38412,0.219 0.67287,0.50775 0.87137,0.87087 0.18138,0.34263 0.2725,0.72638 0.29263,1.1225 0,0.30975 -0.0577,0.60275 -0.1485,0.871 -0.107,0.27213 -0.25188,0.51163 -0.433,0.70975 -0.19838,0.198 -0.4375,0.34263 -0.6895,0.43338 0.40037,0.14837 0.6725,0.36312 0.79687,0.65612 0.128,0.3055 0.20163,0.70588 0.20163,1.17638 l 0,0.34662 c 0,0.16088 0,0.28875 0,0.37975 0.017,0.36325 0.0539,0.63538 0.10737,0.81713 0.0376,0.19812 0.145,0.30937 0.28875,0.3465 l 0,0.21475 -1.90237,0 c -0.074,-0.16088 -0.11125,-0.36313 -0.14425,-0.5985 -0.0209,-0.21463 -0.0375,-0.4705 -0.0375,-0.72638 0,-0.25187 -0.0202,-0.50775 -0.0202,-0.743 -0.0166,-0.27212 -0.0535,-0.48687 -0.0867,-0.652 -0.0574,-0.1445 -0.16513,-0.27237 -0.3465,-0.36312 -0.1815,-0.10738 -0.454,-0.14463 -0.83375,-0.14463 l -1.79513,0 0,3.22763 -1.72512,0 z m -5.25838,0 0,-6.83863 -2.54187,0 0,-1.43212 6.7145,0 0,1.43212 -2.4675,0 0,6.83863 -1.70513,0 z m -9.9255,0 0,-8.27075 6.1165,0 0,1.43212 -4.39125,0 0,1.7955 4.02838,0 0,1.45238 -4.02838,0 0,2.15862 4.58963,0 0,1.43213 -6.31488,0 z m -9.63637,0.004 0,-8.27037 2.53775,0 1.49037,6.52887 0.0166,0 1.48562,-6.52887 2.48813,0 0,8.27037 -1.61788,0 0,-6.92925 -0.0325,0.0166 -1.52725,6.91262 -1.70425,0 -1.48612,-6.92925 -0.0203,0.0166 0,6.91262 -1.63025,0 z" />
      <path
         style="fill:#1c5ca2;fill-opacity:1;fill-rule:evenodd;stroke:none"
         d="m 291.6236,77.690836 17.91462,0 0,17.91425 -17.91462,0 0,-17.91425 z" />
      <path
         style="fill:#ffffff;fill-opacity:1;fill-rule:evenodd;stroke:none"
         d="m 300.5631,79.108836 -6.14125,6.14125 5.10475,5.46912 0,-8.14437 -5.10475,5.46912 6.14125,6.14238 6.14187,-6.14238 -5.10437,-5.46912 0,8.14437 5.10437,-5.46912 -6.14187,-6.14125 z" />
    </g>
  </g>
</svg>
