<svg version="1.2" xmlns="http://www.w3.org/2000/svg" viewBox="0 0 1552 581" width="1552" height="581"><style>.a{fill:#0093dd}</style><path class="a" d="m568.8 154.7l0.1-8.7v-129.4c0 0-121.2-46.1-229.6 16.7-108.4 62.8-126.6 144-126.6 144 0 0-17.2 60.8-19.6 83.7-2.2 23-1.8 22-1.8 22l0.2 2.3-0.2 3.2h376.9c-84.7-30.2-117.9-42.6-157.6-77-51.3-48.8-30.8-100.4-12.1-124.6 40.9-52.7 113.4-41.8 143.8 9.5 4.8 8 9.6 15.7 12.2 21.5 7.4 12.4 10.6 21.2 14.3 36.8zm-568.7-154.1v310.1c0 0 0.3 5.9 1.7 15.9 6.6 46.2 37.8 180.6 179.4 234.8 157.1 60.2 291.8-30.2 347.7-124.9 35.7-60.5 38.8-138.4 38.8-138.4h-375.4c0 0 1.6 3.1 4.5 4.5 15.3 7.1 66.7 28.7 97.6 42.2 60.4 26.4 74.8 41 81.6 74.6 9.3 46.4-17.9 75-27.3 84.1-25.5 24.5-44.7 25.4-68.3 25.7-60.8 0.8-87.1-48.5-89.6-79.3-1.1-13.8 0-449.1 0-449.1z"/><path fill-rule="evenodd" class="a" d="m1448 343.4l0.3 76.2h-30.2v-187.8h29.9l-0.6 23.2q6.6-14.3 18.1-21.4 11.7-7.2 28.3-7.2 24.7 0 41.1 20.1 16.6 20.1 16.6 50.6 0 31-16.5 50.9-16.4 19.9-41.5 19.9-15 0-26.5-6.1-11.4-6.1-19-18.4zm35.4-93.7q-16.1 0-26 13-9.6 13-9.6 35 0 21.6 9.8 34.8 9.9 13.2 25.8 13.2 16 0 26.1-13.2 10.1-13.3 10.1-34.6 0-21.2-10.4-34.6-10.2-13.6-25.8-13.6zm-99.6 20.5h-28.2q-0.4-11.6-8.2-17.8-7.7-6.1-22.1-6.1-12.7 0-20.5 4.9-7.5 5-7.5 12.8 0 13.4 35.7 20.4l0.7 0.1q32.5 6.5 42.2 14.8 9.9 8.4 9.9 24.7 0 20.8-14.8 32.2-14.6 11.4-41.7 11.4-30.2 0-46.1-11.4-15.8-11.4-18.6-34.9h29.2q0.3 12.6 9.4 19.6 9.3 6.8 26.1 6.8 13 0 20.4-4.9 7.5-5.1 7.5-13.7 0-12.2-30.1-18.5-4-0.8-6.3-1.4-30.8-6.8-40.6-15.6-9.7-8.8-9.7-25.6 0-19.6 14.4-30.6 14.3-11 40.2-11 27.7 0 42.9 11.4 15.2 11.2 15.8 32.4zm-139.3 33.4h-107.1q1.1 20.2 12.2 31.3 11.1 11.1 29.9 11.1 11.7 0 20.6-5.2 8.8-5.3 13.4-14.8h29.9q-6.6 19.8-23 30.8-16.3 10.8-39.2 10.8-34.3 0-54-18.9-19.7-19.1-19.7-51.6 0-31.5 19.1-51.1 19.3-19.6 50.7-19.6 31.9 0 49.6 18.8 17.6 18.8 17.6 53.1zm-30.7-20.2q-2-17.8-11.9-27.5-9.9-9.7-26.4-9.7-14.9 0-25.4 10.1-10.5 9.9-13.5 27.1zm-260.7-121.3h30.3l-0.3 88.4q7.6-12.4 18.9-18.4 11.4-6 26.8-6 24.8 0 41.3 20 16.4 19.9 16.4 50.7 0 30.6-16.8 50.7-16.5 20-41.5 20-16.4 0-27.9-7.2-11.4-7.3-17.9-21.7l0.7 23.6h-30zm65.3 86.2q-15.9 0-25.8 13.1-9.8 13-9.8 34.4 0 22.1 9.7 35.4 9.8 13.1 25.9 13.1 15.6 0 25.9-13.6 10.3-13.6 10.3-34.7 0-21.4-10.1-34.5-9.9-13.2-26.1-13.2zm-107.7 32.2v47.3q0 10.3 1.4 18.8 1.5 8.4 4.6 15.6h-31.4q-1.3-4.6-1.9-9.4-0.7-5-1-10.4-10.4 13-22.2 19.2-11.9 6-26.6 6-21.5 0-34.3-11.7-12.7-11.6-12.7-30.9 0-8.3 2.6-15 2.6-6.9 7.9-12 10.9-10.7 50-14.7 4.8-0.6 7.3-0.8 14.5-1.5 20.6-5.7 6-4.2 6-12.3 0-8.2-7.4-13.1-7.5-5.1-20.1-5.1-13.4 0-21.6 5.6-8.3 5.5-9.9 15.5h-30.6q4.2-20.5 19.5-30.7 15.4-10.3 41.8-10.3 31.3 0 44.7 12.4 13.3 12.6 13.3 41.7zm-29.1 7.6q-6.9 7.4-29.5 11.8-4.7 1-7.3 1.5-15.4 3.3-21.6 8.6-6.1 5.4-6.1 15 0 10.1 6.9 16.3 6.9 6 18.5 6 19.5 0 29.5-11.9 10.2-12.1 10.2-35.5 0-3.3-0.6-11zm-119.1-17.9h-28.2q-0.4-11.6-8.2-17.7-7.7-6.2-22.1-6.2-12.6 0-20.4 4.9-7.6 5-7.6 12.8 0 13.4 35.7 20.4l0.8 0.1q32.4 6.5 42.2 14.8 9.8 8.5 9.8 24.7 0 20.8-14.8 32.3-14.6 11.3-41.7 11.3-30.2 0-46.1-11.3-15.7-11.5-18.6-35h29.2q0.4 12.6 9.5 19.6 9.2 6.9 26 6.9 13 0 20.5-5 7.4-5.1 7.4-13.7 0-12.2-30.1-18.5-4-0.8-6.3-1.4-30.8-6.9-40.6-15.6-9.7-8.8-9.7-25.6 0-19.7 14.4-30.6 14.4-10.9 40.2-10.9 27.7 0 42.9 11.3 15.2 11.3 15.8 32.4z"/></svg>